Coordinates
nRows=5
nColumns=38

# SIMM Motion File Header:
name Coordinates
datacolumns 38
datarows 5
otherdata 1
range 1.24800000000000000000 1.25200000000000000000

Units are S.I. units (second, meters, Newtons, ...)
Angles are in degrees.

endheader
time	pelvis_tilt	pelvis_list	pelvis_rotation	pelvis_tx	pelvis_ty	pelvis_tz	hip_flexion_r	hip_adduction_r	hip_rotation_r	knee_angle_r	ankle_angle_r	subtalar_angle_r	mtp_angle_r	hip_flexion_l	hip_adduction_l	hip_rotation_l	knee_angle_l	ankle_angle_l	subtalar_angle_l	mtp_angle_l	lumbar_extension	lumbar_bending	lumbar_rotation	arm_flex_r	arm_add_r	arm_rot_r	elbow_flex_r	pro_sup_r	wrist_flex_r	wrist_dev_r	arm_flex_l	arm_add_l	arm_rot_l	elbow_flex_l	pro_sup_l	wrist_flex_l	wrist_dev_l
      1.24800000000000000000	     -1.27930894227138130000	     -0.52722120251467774000	     -0.27800411939864539000	      0.81363084075604808000	      0.97722105133183379000	     -0.32139924289444965000	     30.93650349641337300000	      5.69408675526355610000	      2.75841406533969510000	    -10.83765030287583800000	      4.66280557998165520000	      0.00000000000000000000	      0.00000000000000000000	    -19.43687807491780400000	      3.35556274473685570000	      3.21309530104969140000	    -60.28587279190958300000	    -28.20423359316142600000	      0.00000000000000000000	      0.00000000000000000000	    -12.51295102671664400000	     -3.06591067280560510000	    -16.89093196229022100000	    -41.91514063367192500000	    -14.47007821428671900000	    -17.93001632726736400000	     93.36286543357482500000	     70.75198435208037000000	      0.00000000000000000000	      0.00000000000000000000	      1.36367568315930670000	    -26.67779530492743900000	      2.21347543279816070000	    109.52035564744635000000	     98.18250242524504800000	      0.00000000000000000000	      0.00000000000000000000
      1.24899999999999990000	     -1.13280228176788640000	     -0.57906850327278414000	     -0.28643970083758474000	      0.81353526896195583000	      0.97697191750892864000	     -0.32135626076285795000	     30.79506734182389500000	      5.76337667390810800000	      2.58246085731850130000	    -11.11726210031618900000	      4.67146161131151590000	     -0.00000000000000000046	      0.00000000000000000469	    -19.25829801365410500000	      3.27129938500510730000	      3.06483515528762500000	    -61.16194837387274700000	    -28.29829378284743800000	      0.00000000000000000062	     -0.00000000000000000069	    -12.73443459291324900000	     -3.00184066801834430000	    -16.80039009498862200000	    -41.77430251796381800000	    -14.47977129413813600000	    -17.89608821728215600000	     93.45590307116674500000	     70.74550828367863200000	     -0.00000000000000000037	     -0.00000000000000000181	      1.34505775980267210000	    -26.63494279068003600000	      2.28679493048249730000	    109.38832014268499000000	     98.14389467899498200000	     -0.00000000000000000006	     -0.00000000000000000003
      1.25000000000000000000	     -0.98556673161868613000	     -0.63462845232241738000	     -0.29470529348888297000	      0.81343810397102045000	      0.97671636427009256000	     -0.32131366567652359000	     30.65491721403055800000	      5.83631553387521600000	      2.40480562363051000000	    -11.41368538010247100000	      4.67815611722427870000	      0.00000000000000000508	     -0.00000000000000000872	    -19.07884215076906300000	      3.18113565481267590000	      2.91444691060844100000	    -62.03447317837800100000	    -28.39541564474188800000	      0.00000000000000000371	      0.00000000000000000099	    -12.95666332748466400000	     -2.93355498788158940000	    -16.70833092485747800000	    -41.63177526485923600000	    -14.49334531737703500000	    -17.86197376581591500000	     93.54991860080052400000	     70.73802294779194700000	     -0.00000000000000000077	     -0.00000000000000000245	      1.32409922128385850000	    -26.58969831577194800000	      2.35649823073597940000	    109.25253030506917000000	     98.10664308409417300000	     -0.00000000000000000053	      0.00000000000000000112
      1.25099999999999990000	     -0.83772628925334147000	     -0.69397484923769459000	     -0.30291918679961993000	      0.81333900475666010000	      0.97645471841097509000	     -0.32127141906903589000	     30.51623697235777800000	      5.91289010267924290000	      2.22431112461065440000	    -11.72648275587738800000	      4.66680507017937440000	      0.00000000000000001064	     -0.00000000000000003099	    -18.89840580163168600000	      3.08505892394691550000	      2.76207759417149970000	    -62.90327665037537500000	    -28.49480697858476600000	      0.00000000000000000731	      0.00000000000000000322	    -13.17949512667412100000	     -2.86096332077617350000	    -16.61453747378126500000	    -41.48737666215969700000	    -14.51085158485672200000	    -17.82775525373201800000	     93.64477884414574800000	     70.72951084356277800000	     -0.00000000000000000399	     -0.00000000000000000168	      1.30089092716808490000	    -26.54200869060170500000	      2.42265220758046510000	    109.11285631031301000000	     98.07088693783825300000	     -0.00000000000000000058	      0.00000000000000000392
      1.25200000000000000000	     -0.68840958274640285000	     -0.75668651233270634000	     -0.31015733723571165000	      0.81323830537370545000	      0.97618851579567822000	     -0.32123095980741279000	     30.37762632211610000000	      5.99223768798991510000	      2.04103745566252130000	    -12.05443043867821200000	      4.64115759303338570000	      0.00000000000000001477	     -0.00000000000000004695	    -18.71796479142429700000	      2.98331962749654790000	      2.60911346414811220000	    -63.76802361494185300000	    -28.59572137365048800000	      0.00000000000000000110	      0.00000000000000000579	    -13.40390216744332500000	     -2.78434952968673200000	    -16.51989471264642300000	    -41.34091616156092600000	    -14.53216637708356300000	    -17.79346801377192800000	     93.74048370720217300000	     70.71997071170680700000	     -0.00000000000000000853	      0.00000000000000000272	      1.27565629346442420000	    -26.49216090012707500000	      2.48540071255888550000	    108.96936907951920000000	     98.03655899881648800000	     -0.00000000000000000076	      0.00000000000000000831
